<?xml version="1.0" encoding="UTF-8"?>
<svg width="225px" height="48px" viewBox="0 0 225 48" version="1.1" xmlns="http://www.w3.org/2000/svg" xmlns:xlink="http://www.w3.org/1999/xlink">
    <title>giessdenkiez-de-logo.svg</title>
    <defs>
        <path d="M8.49054227,1.1284898 C11.8222741,1.1284898 14.3210729,2.60627405 15.7182507,5.48123615 L15.7182507,5.48123615 L12.386519,7.38892128 C11.8222741,5.93800583 10.6669155,4.75577843 8.49054227,4.75577843 C5.96487464,4.75577843 4.32587755,6.20669388 4.32587755,9.32347522 L4.32587755,9.32347522 L4.32587755,12.3327813 C4.32587755,15.4495627 5.96487464,16.9004781 8.49054227,16.9004781 C10.5325714,16.9004781 12.1715685,15.9332012 12.1715685,14.1061224 L12.1715685,14.1061224 L12.1715685,13.1657143 L8.67862391,13.1657143 L8.67862391,9.75337609 L16.0675452,9.75337609 L16.0675452,20.2053411 L12.6283382,20.2053411 L12.6283382,17.2229038 L12.4939942,17.2229038 C12.2253061,19.1037201 10.5057026,20.5277668 7.68447813,20.5277668 C3.38546939,20.5277668 -1.98869104e-15,17.196035 -1.98869104e-15,10.9087347 C-1.98869104e-15,4.5945656 3.41233819,1.1284898 8.49054227,1.1284898 Z M33.2367114,5.776793 C37.9118834,5.776793 39.7926997,9.16226239 39.7926997,12.9776327 L39.7926997,12.9776327 L39.7926997,14.1598601 L30.7379125,14.1598601 L30.7379125,14.3748105 C30.7379125,16.228758 31.7320583,17.4109854 33.8546939,17.4109854 C35.5205598,17.4109854 36.4340991,16.6317901 37.3207697,15.7182507 L37.3207697,15.7182507 L39.3090612,18.1901808 C38.0462274,19.6410962 35.9773294,20.5277668 33.3979242,20.5277668 C29.0720466,20.5277668 26.6269854,17.6528047 26.6269854,13.1388455 C26.6269854,8.67862391 28.9914402,5.776793 33.2367114,5.776793 Z M50.1371895,0 C54.1675102,0 56.8543907,2.17637318 56.8543907,5.93800583 L56.8543907,5.93800583 L56.8543907,8.54427988 L55.3497376,8.54427988 C53.6838717,8.54427988 53.0658892,8.86670554 53.0658892,9.8071137 C53.0658892,10.6669155 53.6032653,10.9356035 54.7317551,11.3117668 L54.7317551,11.3117668 L55.564688,11.5804548 C57.499242,12.1984373 58.6814694,13.3537959 58.6814694,15.5570379 C58.6814694,18.6200816 56.531965,20.5277668 53.4689213,20.5277668 C51.2119417,20.5277668 49.519207,19.9097843 48.4713236,18.5126064 L48.4713236,18.5126064 L50.7283032,16.2018892 C51.5343673,17.1691662 52.3941691,17.5721983 53.4151837,17.5721983 C54.3824606,17.5721983 55.027312,17.0348222 55.027312,16.0406764 C55.027312,15.127137 54.4899359,14.724105 53.2539708,14.3210729 L53.2539708,14.3210729 L52.4210379,14.0523848 C50.5670904,13.4612711 49.4117318,12.3327813 49.4117318,10.1564082 C49.4117318,8.00690379 50.8089096,6.52911953 53.2002332,5.99174344 L53.2002332,5.99174344 L53.2002332,5.93800583 C53.2002332,3.86910787 52.2060875,2.95556851 50.2446647,2.95556851 C48.283242,2.95556851 47.2890962,3.86910787 47.2890962,5.93800583 L47.2890962,5.93800583 L47.2890962,20.2053411 L43.3125131,20.2053411 L43.3125131,9.1891312 L41.3242216,9.1891312 L41.3242216,6.09921866 L43.3125131,6.09921866 L43.3125131,5.99174344 C43.3125131,2.23011079 46.1068688,0 50.1371895,0 Z M80.1765131,0.322425656 L80.1765131,20.2053411 L76.19993,20.2053411 L76.19993,17.8408863 L76.065586,17.8408863 C75.6625539,19.3724082 74.1041633,20.5277668 72.2770845,20.5277668 C68.7035335,20.5277668 66.849586,17.9214927 66.849586,13.1388455 C66.849586,8.35619825 68.7035335,5.776793 72.2770845,5.776793 C74.1041633,5.776793 75.6625539,6.9052828 76.065586,8.46367347 L76.065586,8.46367347 L76.19993,8.46367347 L76.19993,0.322425656 L80.1765131,0.322425656 Z M89.6074636,5.776793 C94.2826356,5.776793 96.1634519,9.16226239 96.1634519,12.9776327 L96.1634519,12.9776327 L96.1634519,14.1598601 L87.1086647,14.1598601 L87.1086647,14.3748105 C87.1086647,16.228758 88.1028105,17.4109854 90.2254461,17.4109854 C91.891312,17.4109854 92.8048513,16.6317901 93.6915219,15.7182507 L93.6915219,15.7182507 L95.6798134,18.1901808 C94.4169796,19.6410962 92.3480816,20.5277668 89.7686764,20.5277668 C85.4427988,20.5277668 82.9977376,17.6528047 82.9977376,13.1388455 C82.9977376,8.67862391 85.3621924,5.776793 89.6074636,5.776793 Z M23.8057609,6.09921866 L23.8057609,20.2053411 L19.8291778,20.2053411 L19.8291778,6.09921866 L23.8057609,6.09921866 Z M107.045318,5.776793 C109.92028,5.776793 111.451802,7.81882216 111.451802,11.3655044 L111.451802,11.3655044 L111.451802,20.2053411 L107.475219,20.2053411 L107.475219,11.68793 C107.475219,9.88772012 106.964711,9.00104956 105.513796,9.00104956 C104.224093,9.00104956 102.961259,9.67276968 102.961259,11.0699475 L102.961259,11.0699475 L102.961259,20.2053411 L98.9846764,20.2053411 L98.9846764,6.09921866 L102.961259,6.09921866 L102.961259,8.49054227 L103.122472,8.49054227 C103.63298,7.01275802 104.815207,5.776793 107.045318,5.776793 Z M73.593656,9.00104956 C72.0890029,9.00104956 70.9873819,10.1564082 70.9873819,11.9297493 L70.9873819,11.9297493 L70.9873819,14.3748105 C70.9873819,16.1481516 72.0890029,17.3035102 73.593656,17.3035102 C75.098309,17.3035102 76.19993,16.5243149 76.19993,15.2346122 L76.19993,15.2346122 L76.19993,11.0699475 C76.19993,9.7802449 75.098309,9.00104956 73.593656,9.00104956 Z M33.3173178,8.70549271 C31.7320583,8.70549271 30.7379125,9.86085131 30.7379125,11.6073236 L30.7379125,11.6073236 L30.7379125,11.8222741 L35.6817726,11.8222741 L35.6817726,11.5804548 C35.6817726,9.86085131 34.9025773,8.70549271 33.3173178,8.70549271 Z M89.68807,8.70549271 C88.1028105,8.70549271 87.1086647,9.86085131 87.1086647,11.6073236 L87.1086647,11.6073236 L87.1086647,11.8222741 L92.0525248,11.8222741 L92.0525248,11.5804548 C92.0525248,9.86085131 91.2733294,8.70549271 89.68807,8.70549271 Z M21.8174694,0.080606414 C23.4295977,0.080606414 24.1281866,0.913539359 24.1281866,2.04202915 L24.1281866,2.04202915 L24.1281866,2.63314286 C24.1281866,3.76163265 23.4295977,4.5945656 21.8174694,4.5945656 C20.2053411,4.5945656 19.5067522,3.76163265 19.5067522,2.63314286 L19.5067522,2.63314286 L19.5067522,2.04202915 C19.5067522,0.913539359 20.2053411,0.080606414 21.8174694,0.080606414 Z" id="path-1"></path>
        <path d="M31.8932711,5.69618659 C36.5684431,5.69618659 38.4492595,9.08165598 38.4492595,12.8970262 L38.4492595,12.8970262 L38.4492595,14.0792536 L29.3944723,14.0792536 L29.3944723,14.2942041 C29.3944723,16.1481516 30.3886181,17.330379 32.5112536,17.330379 C34.1771195,17.330379 35.0906589,16.5511837 35.9773294,15.6376443 L35.9773294,15.6376443 L37.965621,18.1095743 C36.7027872,19.5604898 34.6338892,20.4471603 32.054484,20.4471603 C27.7286064,20.4471603 25.2835452,17.5721983 25.2835452,13.0582391 C25.2835452,8.59801749 27.648,5.69618659 31.8932711,5.69618659 Z M4.08405831,1.37030904 L4.08405831,10.2907522 L4.24527114,10.2907522 L6.9052828,6.66346356 L11.1236851,1.37030904 L15.7451195,1.37030904 L9.43095044,9.08165598 L16.3093644,20.1247347 L11.4998484,20.1247347 L6.52911953,11.9566181 L4.08405831,14.9121866 L4.08405831,20.1247347 L0,20.1247347 L0,1.37030904 L4.08405831,1.37030904 Z M22.4623207,6.01861224 L22.4623207,20.1247347 L18.4857376,20.1247347 L18.4857376,6.01861224 L22.4623207,6.01861224 Z M52.0986122,6.01861224 L52.0986122,9.13539359 L45.0589854,17.0348222 L52.2866939,17.0348222 L52.2866939,20.1247347 L40.4644198,20.1247347 L40.4644198,16.9810845 L47.4771778,9.10852478 L40.7062391,9.10852478 L40.7062391,6.01861224 L52.0986122,6.01861224 Z M31.9738776,8.6248863 C30.3886181,8.6248863 29.3944723,9.7802449 29.3944723,11.5267172 L29.3944723,11.5267172 L29.3944723,11.7416676 L34.3383324,11.7416676 L34.3383324,11.4998484 C34.3383324,9.7802449 33.559137,8.6248863 31.9738776,8.6248863 Z M20.4740292,0 C22.0861574,0 22.7847464,0.832932945 22.7847464,1.96142274 L22.7847464,1.96142274 L22.7847464,2.55253644 C22.7847464,3.68102624 22.0861574,4.51395918 20.4740292,4.51395918 C18.8619009,4.51395918 18.163312,3.68102624 18.163312,2.55253644 L18.163312,2.55253644 L18.163312,1.96142274 C18.163312,0.832932945 18.8619009,0 20.4740292,0 Z" id="path-3"></path>
        <path d="M8.26523615,0 C12.8301341,0 16.5306122,3.70047813 16.5306122,8.26523615 C16.5306122,12.8301341 12.8301341,16.5306122 8.26523615,16.5306122 C3.70047813,16.5306122 0,12.8301341 0,8.26523615 C0,3.70047813 3.70047813,0 8.26523615,0 Z" id="path-5"></path>
        <path d="M1.18068805,0 C1.83281633,0 2.36151603,0.528699708 2.36151603,1.18082799 L2.36151603,16.5306122 C2.36151603,17.1827405 1.83281633,17.7114402 1.18068805,17.7114402 C0.528559767,17.7114402 0,17.1827405 0,16.5306122 L0,1.18082799 C0,0.528699708 0.528559767,0 1.18068805,0 Z" id="path-7"></path>
        <path d="M2.0157551,0.345830904 L5.77290962,4.10298542 C6.23401749,4.56409329 6.23401749,5.31166181 5.77290962,5.77276968 C5.31180175,6.23387755 4.56409329,6.23387755 4.10298542,5.77276968 L0.345830904,2.01561516 C-0.115276968,1.55450729 -0.115276968,0.806938776 0.345830904,0.345830904" id="path-9"></path>
        <path d="M15.9401983,0 C24.7437901,0 31.8805364,7.13674636 31.8805364,15.9401983 C31.8805364,23.5796152 26.5064956,29.9637551 19.3328047,31.5186472 L12.3812012,31.4817026 C5.29091545,29.8646764 0,23.5202799 0,15.9401983 C0,7.13674636 7.13674636,0 15.9401983,0 Z" id="path-11"></path>
        <path d="M1.18068805,0 C1.83281633,0 2.36151603,0.528559767 2.36151603,1.18068805 L2.36151603,34.2419125 C2.36151603,34.8940408 1.83281633,35.4227405 1.18068805,35.4227405 C0.528559767,35.4227405 0,34.8940408 0,34.2419125 L0,1.18068805 C0,0.528559767 0.528559767,0 1.18068805,0 Z" id="path-13"></path>
        <path d="M2.01561516,0.345830904 L7.86013994,6.19035569 C8.32124781,6.65146356 8.32124781,7.39903207 7.86013994,7.86013994 C7.39903207,8.32124781 6.65132362,8.32124781 6.19021574,7.86013994 L0.345830904,2.0157551 C-0.115276968,1.55464723 -0.115276968,0.806938776 0.345830904,0.345830904" id="path-15"></path>
        <path d="M7.44269388,0.345830904 C7.90380175,0.806938776 7.90380175,1.55450729 7.44269388,2.01561516 L2.01561516,7.44269388 C1.55450729,7.90380175 0.806938776,7.90380175 0.345830904,7.44269388 C-0.115276968,6.98158601 -0.115276968,6.23387755 0.345830904,5.77276968 L5.77276968,0.345830904" id="path-17"></path>
    </defs>
    <g id="giessdenkiez-de-logo.svg" stroke="none" stroke-width="1" fill="none" fill-rule="evenodd">
        <g id="Group-3" transform="translate(0.083965, 27.234892)">
            <mask id="mask-2" fill="white">
                <use xlink:href="#path-1"></use>
            </mask>
            <g id="Clip-2"></g>
            <polygon id="Fill-1" fill="#000000" mask="url(#mask-2)" points="-0.00559766764 20.5328047 111.466356 20.5328047 111.466356 -0.00503790087 -0.00559766764 -0.00503790087"></polygon>
        </g>
        <g id="Group-6" transform="translate(121.638437, 27.315499)">
            <mask id="mask-4" fill="white">
                <use xlink:href="#path-3"></use>
            </mask>
            <g id="Clip-5"></g>
            <polygon id="Fill-4" fill="#6FE5A4" mask="url(#mask-4)" points="-0.0123148688 20.4521983 52.2978892 20.4521983 52.2978892 -0.00167930029 -0.0123148688 -0.00167930029"></polygon>
        </g>
        <g id="Group-9" transform="translate(184.893621, 23.103534)">
            <mask id="mask-6" fill="white">
                <use xlink:href="#path-5"></use>
            </mask>
            <g id="Clip-8"></g>
            <polygon id="Fill-7" fill="#E3FFEF" mask="url(#mask-6)" points="-0.00825655977 16.5363499 16.5328513 16.5363499 16.5328513 -0.00475801749 -0.00825655977 -0.00475801749"></polygon>
        </g>
        <path d="M188.690519,23.131102 C186.065913,24.6679417 184.303207,27.5172945 184.303207,30.7784956 C184.303207,34.358344 186.427382,37.4420991 189.484128,38.8380175 M196.354706,39.0399534 C198.07123,38.3755102 199.528863,37.1914636 200.534904,35.6809329" id="Stroke-10" stroke="#6FE5A4" stroke-width="2.36151603" stroke-linecap="round"></path>
        <g id="Group-13" transform="translate(191.978169, 29.597668)">
            <mask id="mask-8" fill="white">
                <use xlink:href="#path-7"></use>
            </mask>
            <g id="Clip-12"></g>
            <polygon id="Fill-11" fill="#000000" mask="url(#mask-8)" points="-0.0061574344 17.7166181 2.36165598 17.7166181 2.36165598 0 -0.0061574344 0"></polygon>
        </g>
        <g id="Group-16" transform="translate(187.586064, 30.217714)">
            <mask id="mask-10" fill="white">
                <use xlink:href="#path-9"></use>
            </mask>
            <g id="Clip-15"></g>
            <polyline id="Fill-14" fill="#000000" mask="url(#mask-10)" points="4.93801749 8.58685714 -2.46811662 1.18072303 1.18072303 -2.46811662 8.58685714 4.93787755"></polyline>
        </g>
        <g id="Group-19" transform="translate(191.387755, 1.259475)">
            <mask id="mask-12" fill="white">
                <use xlink:href="#path-11"></use>
            </mask>
            <g id="Clip-18"></g>
            <polygon id="Fill-17" fill="#E3FFEF" mask="url(#mask-12)" points="-0.00349854227 31.528863 31.886414 31.528863 31.886414 -0.00839650146 -0.00349854227 -0.00839650146"></polygon>
        </g>
        <path d="M210.72056,32.7781224 C217.894251,31.2232303 223.268292,24.8390904 223.268292,17.1996735 C223.268292,8.39622157 216.131545,1.25947522 207.327953,1.25947522 C198.524501,1.25947522 191.387755,8.39622157 191.387755,17.1996735 C191.387755,24.7797551 196.678671,31.1241516 203.768956,32.7411778" id="Stroke-20" stroke="#6FE5A4" stroke-width="2.36151603" stroke-linecap="round"></path>
        <g id="Group-23" transform="translate(206.147265, 11.886367)">
            <mask id="mask-14" fill="white">
                <use xlink:href="#path-13"></use>
            </mask>
            <g id="Clip-22"></g>
            <polygon id="Fill-21" fill="#000000" mask="url(#mask-14)" points="-0.00195918367 35.4279184 2.36585423 35.4279184 2.36585423 -0.00531778426 -0.00195918367 -0.00531778426"></polygon>
        </g>
        <g id="Group-26" transform="translate(199.667930, 18.690437)">
            <mask id="mask-16" fill="white">
                <use xlink:href="#path-15"></use>
            </mask>
            <g id="Clip-25"></g>
            <polyline id="Fill-24" fill="#000000" mask="url(#mask-16)" points="7.02524781 10.6742274 -2.46825656 1.18086297 1.18072303 -2.46811662 10.6740875 7.02524781"></polyline>
        </g>
        <g id="Group-29" transform="translate(206.782146, 13.794577)">
            <mask id="mask-18" fill="white">
                <use xlink:href="#path-17"></use>
            </mask>
            <g id="Clip-28"></g>
            <polyline id="Fill-27" fill="#000000" mask="url(#mask-18)" points="-2.46825656 6.60766181 6.60766181 -2.46825656 10.2566414 1.18072303 1.18072303 10.2566414"></polyline>
        </g>
    </g>
</svg>